<mxfile host="app.diagrams.net" agent="Mozilla/5.0 (Windows NT 10.0; Win64; x64) AppleWebKit/537.36 (KHTML, like Gecko) Chrome/136.0.0.0 Safari/537.36" version="26.2.14">
  <diagram name="Page-1" id="eILoj3lhDwakVsB2kPnn">
    <mxGraphModel dx="1042" dy="562" grid="1" gridSize="10" guides="1" tooltips="1" connect="1" arrows="1" fold="1" page="1" pageScale="1" pageWidth="850" pageHeight="1100" math="0" shadow="0">
      <root>
        <mxCell id="0" />
        <mxCell id="1" parent="0" />
        <mxCell id="QKbq5uZ6Sm_ZUpKQsgr7-13" value="Sends raw&amp;nbsp;&lt;div&gt;&lt;span style=&quot;background-color: transparent; color: light-dark(rgb(0, 0, 0), rgb(255, 255, 255));&quot;&gt;bits&amp;nbsp;&lt;/span&gt;&lt;span style=&quot;background-color: transparent; color: light-dark(rgb(0, 0, 0), rgb(255, 255, 255));&quot;&gt;via cables or&lt;/span&gt;&lt;span style=&quot;background-color: transparent; color: light-dark(rgb(0, 0, 0), rgb(255, 255, 255));&quot;&gt;&amp;nbsp;signals.&lt;/span&gt;&lt;/div&gt;" style="ellipse;whiteSpace=wrap;html=1;" parent="1" vertex="1">
          <mxGeometry x="540" y="60" width="102.86" height="60" as="geometry" />
        </mxCell>
        <mxCell id="QKbq5uZ6Sm_ZUpKQsgr7-14" value="Smooth data movement and error detection" style="ellipse;whiteSpace=wrap;html=1;" parent="1" vertex="1">
          <mxGeometry x="270" y="116.67" width="110" height="66.67" as="geometry" />
        </mxCell>
        <mxCell id="QKbq5uZ6Sm_ZUpKQsgr7-15" value="Routing and IP addressing." style="ellipse;whiteSpace=wrap;html=1;" parent="1" vertex="1">
          <mxGeometry x="540" y="180" width="110" height="60" as="geometry" />
        </mxCell>
        <mxCell id="QKbq5uZ6Sm_ZUpKQsgr7-16" value="&lt;div&gt;&lt;br&gt;&lt;/div&gt;End-to-end Connections and Reliable data Transfer.&lt;div&gt;&amp;nbsp;&lt;/div&gt;" style="ellipse;whiteSpace=wrap;html=1;" parent="1" vertex="1">
          <mxGeometry x="270" y="240" width="110" height="70" as="geometry" />
        </mxCell>
        <mxCell id="QKbq5uZ6Sm_ZUpKQsgr7-17" value="&lt;div&gt;&lt;span style=&quot;background-color: transparent; color: light-dark(rgb(0, 0, 0), rgb(255, 255, 255));&quot;&gt;Maintains and coordinates communication sessions.&lt;/span&gt;&lt;/div&gt;" style="ellipse;whiteSpace=wrap;html=1;" parent="1" vertex="1">
          <mxGeometry x="540" y="292.5" width="110" height="75" as="geometry" />
        </mxCell>
        <mxCell id="QKbq5uZ6Sm_ZUpKQsgr7-18" value="Data formatting ,encryption and Compression" style="ellipse;whiteSpace=wrap;html=1;" parent="1" vertex="1">
          <mxGeometry x="270" y="360" width="110" height="70" as="geometry" />
        </mxCell>
        <mxCell id="QKbq5uZ6Sm_ZUpKQsgr7-19" value="User Interface&lt;div&gt;(browser,email)&lt;/div&gt;" style="ellipse;whiteSpace=wrap;html=1;" parent="1" vertex="1">
          <mxGeometry x="540" y="415" width="110" height="70" as="geometry" />
        </mxCell>
        <mxCell id="QKbq5uZ6Sm_ZUpKQsgr7-1" value="&lt;font style=&quot;font-size: 14px;&quot;&gt;7. Application Layer&lt;/font&gt;" style="rounded=1;whiteSpace=wrap;html=1;strokeColor=#060606;fillColor=#7CBAA9;" parent="1" vertex="1">
          <mxGeometry x="400" y="420" width="120" height="60" as="geometry" />
        </mxCell>
        <mxCell id="QKbq5uZ6Sm_ZUpKQsgr7-2" value="&lt;font style=&quot;font-size: 14px;&quot;&gt;5. Session Layer&lt;/font&gt;" style="rounded=1;whiteSpace=wrap;html=1;fillColor=#7FC7B3;" parent="1" vertex="1">
          <mxGeometry x="400" y="300" width="120" height="60" as="geometry" />
        </mxCell>
        <mxCell id="QKbq5uZ6Sm_ZUpKQsgr7-3" value="&lt;font style=&quot;font-size: 14px;&quot;&gt;4. Transport Layer&lt;/font&gt;" style="rounded=1;whiteSpace=wrap;html=1;fillColor=#CAE8C6;" parent="1" vertex="1">
          <mxGeometry x="400" y="240" width="120" height="60" as="geometry" />
        </mxCell>
        <mxCell id="QKbq5uZ6Sm_ZUpKQsgr7-4" value="&lt;font style=&quot;font-size: 14px;&quot;&gt;3. Network Layer&lt;/font&gt;" style="rounded=1;whiteSpace=wrap;html=1;fillColor=#78C7C2;" parent="1" vertex="1">
          <mxGeometry x="400" y="180" width="120" height="60" as="geometry" />
        </mxCell>
        <mxCell id="QKbq5uZ6Sm_ZUpKQsgr7-5" value="&lt;font style=&quot;font-size: 14px;&quot;&gt;2. Data-link Layer&lt;/font&gt;" style="rounded=1;whiteSpace=wrap;html=1;fillColor=#D5E8D4;" parent="1" vertex="1">
          <mxGeometry x="400" y="120" width="120" height="60" as="geometry" />
        </mxCell>
        <mxCell id="QKbq5uZ6Sm_ZUpKQsgr7-6" value="&lt;font style=&quot;font-size: 14px;&quot;&gt;6. Presentation&amp;nbsp;&lt;/font&gt;&lt;div&gt;&lt;font style=&quot;font-size: 14px;&quot;&gt;Layer&lt;/font&gt;&lt;/div&gt;" style="rounded=1;whiteSpace=wrap;html=1;fillColor=#86DECF;" parent="1" vertex="1">
          <mxGeometry x="400" y="360" width="120" height="60" as="geometry" />
        </mxCell>
        <mxCell id="QKbq5uZ6Sm_ZUpKQsgr7-7" value="&lt;font style=&quot;font-size: 14px;&quot;&gt;1. Physical Layer&lt;/font&gt;" style="rounded=1;whiteSpace=wrap;html=1;fillColor=#9AC7BF;" parent="1" vertex="1">
          <mxGeometry x="400" y="60" width="120" height="60" as="geometry" />
        </mxCell>
        <mxCell id="ZTAJJdRsGotNxG4SNhS8-1" value="" style="endArrow=none;dashed=1;html=1;rounded=0;entryX=0;entryY=0.5;entryDx=0;entryDy=0;" parent="1" source="QKbq5uZ6Sm_ZUpKQsgr7-7" target="QKbq5uZ6Sm_ZUpKQsgr7-13" edge="1">
          <mxGeometry width="50" height="50" relative="1" as="geometry">
            <mxPoint x="510" y="110" as="sourcePoint" />
            <mxPoint x="560" y="60" as="targetPoint" />
          </mxGeometry>
        </mxCell>
        <mxCell id="ZTAJJdRsGotNxG4SNhS8-5" value="" style="endArrow=none;dashed=1;html=1;rounded=0;entryX=1;entryY=0.5;entryDx=0;entryDy=0;exitX=0;exitY=0.5;exitDx=0;exitDy=0;" parent="1" source="QKbq5uZ6Sm_ZUpKQsgr7-5" target="QKbq5uZ6Sm_ZUpKQsgr7-14" edge="1">
          <mxGeometry width="50" height="50" relative="1" as="geometry">
            <mxPoint x="400" y="320" as="sourcePoint" />
            <mxPoint x="450" y="270" as="targetPoint" />
          </mxGeometry>
        </mxCell>
        <mxCell id="ZTAJJdRsGotNxG4SNhS8-6" value="" style="endArrow=none;dashed=1;html=1;rounded=0;entryX=1;entryY=0.5;entryDx=0;entryDy=0;exitX=0;exitY=0.5;exitDx=0;exitDy=0;" parent="1" source="QKbq5uZ6Sm_ZUpKQsgr7-15" target="QKbq5uZ6Sm_ZUpKQsgr7-4" edge="1">
          <mxGeometry width="50" height="50" relative="1" as="geometry">
            <mxPoint x="540" y="235" as="sourcePoint" />
            <mxPoint x="550" y="185" as="targetPoint" />
          </mxGeometry>
        </mxCell>
        <mxCell id="ZTAJJdRsGotNxG4SNhS8-7" value="" style="endArrow=none;dashed=1;html=1;rounded=0;exitX=1;exitY=0.5;exitDx=0;exitDy=0;" parent="1" source="QKbq5uZ6Sm_ZUpKQsgr7-16" edge="1">
          <mxGeometry width="50" height="50" relative="1" as="geometry">
            <mxPoint x="400" y="320" as="sourcePoint" />
            <mxPoint x="400" y="275" as="targetPoint" />
          </mxGeometry>
        </mxCell>
        <mxCell id="ZTAJJdRsGotNxG4SNhS8-8" value="" style="endArrow=none;dashed=1;html=1;rounded=0;" parent="1" target="QKbq5uZ6Sm_ZUpKQsgr7-17" edge="1">
          <mxGeometry width="50" height="50" relative="1" as="geometry">
            <mxPoint x="520" y="330" as="sourcePoint" />
            <mxPoint x="450" y="270" as="targetPoint" />
          </mxGeometry>
        </mxCell>
        <mxCell id="ZTAJJdRsGotNxG4SNhS8-9" value="" style="endArrow=none;dashed=1;html=1;rounded=0;exitX=1;exitY=0.5;exitDx=0;exitDy=0;" parent="1" source="QKbq5uZ6Sm_ZUpKQsgr7-18" target="QKbq5uZ6Sm_ZUpKQsgr7-6" edge="1">
          <mxGeometry width="50" height="50" relative="1" as="geometry">
            <mxPoint x="380" y="410" as="sourcePoint" />
            <mxPoint x="410" y="390" as="targetPoint" />
          </mxGeometry>
        </mxCell>
        <mxCell id="ZTAJJdRsGotNxG4SNhS8-16" value="" style="endArrow=none;dashed=1;html=1;rounded=0;entryX=0;entryY=0.5;entryDx=0;entryDy=0;exitX=1;exitY=0.5;exitDx=0;exitDy=0;" parent="1" source="QKbq5uZ6Sm_ZUpKQsgr7-1" target="QKbq5uZ6Sm_ZUpKQsgr7-19" edge="1">
          <mxGeometry width="50" height="50" relative="1" as="geometry">
            <mxPoint x="520" y="460" as="sourcePoint" />
            <mxPoint x="560" y="420" as="targetPoint" />
          </mxGeometry>
        </mxCell>
        <mxCell id="ZTAJJdRsGotNxG4SNhS8-17" value="" style="group" parent="1" connectable="0" vertex="1">
          <mxGeometry x="220" y="60" width="50" height="420" as="geometry" />
        </mxCell>
        <mxCell id="QKbq5uZ6Sm_ZUpKQsgr7-26" value="" style="labelPosition=right;align=left;strokeWidth=1;shape=mxgraph.mockup.markup.curlyBrace;html=1;shadow=0;dashed=0;strokeColor=#999999;direction=north;fillColor=#494949;" parent="ZTAJJdRsGotNxG4SNhS8-17" vertex="1">
          <mxGeometry x="30" width="20" height="180" as="geometry" />
        </mxCell>
        <mxCell id="QKbq5uZ6Sm_ZUpKQsgr7-27" value="&lt;b&gt;HOST LAYERS&lt;/b&gt;" style="text;html=1;align=center;verticalAlign=middle;whiteSpace=wrap;rounded=0;rotation=-90;" parent="ZTAJJdRsGotNxG4SNhS8-17" vertex="1">
          <mxGeometry x="-30" y="285" width="90" height="30" as="geometry" />
        </mxCell>
        <mxCell id="QKbq5uZ6Sm_ZUpKQsgr7-28" value="" style="labelPosition=right;align=left;strokeWidth=1;shape=mxgraph.mockup.markup.curlyBrace;html=1;shadow=0;dashed=0;strokeColor=#999999;direction=north;" parent="ZTAJJdRsGotNxG4SNhS8-17" vertex="1">
          <mxGeometry x="30" y="180" width="20" height="240" as="geometry" />
        </mxCell>
        <mxCell id="QKbq5uZ6Sm_ZUpKQsgr7-29" value="&lt;b&gt;MEDIA LAYERS&lt;/b&gt;" style="text;html=1;align=center;verticalAlign=middle;whiteSpace=wrap;rounded=0;rotation=-90;" parent="ZTAJJdRsGotNxG4SNhS8-17" vertex="1">
          <mxGeometry x="-40" y="75" width="110" height="30" as="geometry" />
        </mxCell>
        <mxCell id="O-NlADAziU48371uSe_L-6" value="" style="group" parent="1" connectable="0" vertex="1">
          <mxGeometry x="680" y="40" width="40" height="450" as="geometry" />
        </mxCell>
        <mxCell id="O-NlADAziU48371uSe_L-2" value="" style="shape=flexArrow;endArrow=classic;html=1;rounded=0;endWidth=24;endSize=8.53;" parent="O-NlADAziU48371uSe_L-6" edge="1">
          <mxGeometry width="50" height="50" relative="1" as="geometry">
            <mxPoint as="sourcePoint" />
            <mxPoint y="450" as="targetPoint" />
            <Array as="points">
              <mxPoint y="225" />
            </Array>
          </mxGeometry>
        </mxCell>
        <mxCell id="O-NlADAziU48371uSe_L-5" value="&lt;span style=&quot;font-size: 14px;&quot;&gt;&lt;b&gt;Receive Data&lt;/b&gt;&lt;/span&gt;" style="text;html=1;align=center;verticalAlign=middle;whiteSpace=wrap;rounded=0;rotation=-90;" parent="O-NlADAziU48371uSe_L-6" vertex="1">
          <mxGeometry x="-40" y="200" width="130" height="30" as="geometry" />
        </mxCell>
        <mxCell id="O-NlADAziU48371uSe_L-7" value="" style="group" parent="1" connectable="0" vertex="1">
          <mxGeometry x="150" y="40" width="40" height="450" as="geometry" />
        </mxCell>
        <mxCell id="O-NlADAziU48371uSe_L-1" value="" style="shape=flexArrow;endArrow=classic;html=1;rounded=0;endWidth=24;endSize=8.53;" parent="O-NlADAziU48371uSe_L-7" edge="1">
          <mxGeometry width="50" height="50" relative="1" as="geometry">
            <mxPoint x="40" y="450" as="sourcePoint" />
            <mxPoint x="40" as="targetPoint" />
            <Array as="points">
              <mxPoint x="40" y="220" />
            </Array>
          </mxGeometry>
        </mxCell>
        <mxCell id="O-NlADAziU48371uSe_L-3" value="&lt;b&gt;&lt;font style=&quot;font-size: 14px;&quot;&gt;Transmit Data&lt;/font&gt;&lt;/b&gt;" style="text;html=1;align=center;verticalAlign=middle;whiteSpace=wrap;rounded=0;rotation=-90;" parent="O-NlADAziU48371uSe_L-7" vertex="1">
          <mxGeometry x="-50" y="200" width="130" height="30" as="geometry" />
        </mxCell>
      </root>
    </mxGraphModel>
  </diagram>
</mxfile>
